<?xml version="1.0" encoding="UTF-8"?>
<svg id="Layer_2" data-name="Layer 2" xmlns="http://www.w3.org/2000/svg" viewBox="0 0 127.43 93.58">
  <defs>
    <style>
      .cls-1 {
        fill: #009ee0;
      }

      .cls-1, .cls-2 {
        fill-rule: evenodd;
      }

      .cls-2 {
        fill: #4c638b;
      }

      .cls-3 {
        fill: #1b1918;
      }
    </style>
  </defs>
  <g id="Layer_1-2" data-name="Layer 1">
    <g>
      <path class="cls-1" d="M11.83,0l65.89.2c55.2,5.61,56.14,87.86-.19,93.37l-33.24-.08-.13-4.42h33.19c56.61-11,44.61-82.79-3.09-84.28H10.1l1.73-4.8Z"/>
      <path class="cls-1" d="M8.35,9.65l65.99.2c45.72,2.34,50.48,65.38,3.7,74.41l-33.27.08-.18-4.16,33.1-.4c43.21-11.51,31.96-64.75-2.98-65.32H6.62l1.73-4.8Z"/>
      <path class="cls-1" d="M5.04,18.83l68.93.2c34.08,2.95,37.53,47.55,2.86,55.94l-28.3.04.04-4.23,27.91-.29c31.61-9.66,22.41-44.63-2.13-46.85H3.31l1.73-4.81Z"/>
      <path class="cls-1" d="M1.75,27.96h9.7l62.79.26c21.64,2.13,23.39,32.96,1.17,37.38l-21.98-.2.11-4.25,21.52-.02c18.47-5.41,14.11-26.07-.45-28.29H0l1.75-4.87Z"/>
      <polygon class="cls-1" points="38.36 33.13 33.68 33.22 11.74 93.5 16.61 93.5 38.36 33.13"/>
      <polygon class="cls-1" points="47.84 33.13 43.15 33.22 21.21 93.5 26.09 93.5 47.84 33.13"/>
      <polygon class="cls-1" points="56.56 33.13 51.87 33.22 29.93 93.5 34.81 93.5 56.56 33.13"/>
      <polygon class="cls-1" points="66.03 33.13 61.34 33.22 39.4 93.5 44.28 93.5 66.03 33.13"/>
      <polygon class="cls-2" points="38.48 32.8 33.79 32.82 32.12 37.46 36.81 37.49 38.48 32.8"/>
      <polygon class="cls-2" points="48.11 32.81 43.26 32.8 41.6 37.44 46.26 37.49 48.11 32.81"/>
      <polygon class="cls-2" points="56.67 32.81 52 32.83 50.34 37.44 55 37.49 56.67 32.81"/>
      <polygon class="cls-2" points="66.12 32.81 61.44 32.83 59.82 37.42 64.46 37.51 66.12 32.81"/>
      <polygon class="cls-2" points="60.61 61.12 55.93 61.12 54.41 65.39 59.04 65.43 60.61 61.12"/>
      <polygon class="cls-2" points="57.25 70.72 52.46 70.76 51 75.04 55.66 75.08 57.25 70.72"/>
      <polygon class="cls-2" points="53.86 80.08 49.12 80.14 47.59 84.32 52.31 84.32 53.86 80.08"/>
      <polygon class="cls-2" points="50.57 89.07 45.86 89.09 44.34 93.5 49 93.52 50.57 89.07"/>
      <path class="cls-3" d="M127.43,10.34c0,3.43-2.72,6.13-6.19,6.13-3.28,0-6.03-2.79-6.03-6.12s2.74-6.11,6.11-6.11,6.11,2.74,6.11,6.1ZM116.29,10.36c0,2.79,2.26,5.12,4.96,5.12,2.85,0,5.09-2.27,5.09-5.14s-2.26-5.11-5.03-5.11-5.03,2.29-5.03,5.12ZM119.76,13.88h-1.12v-7.12h3.3c1.52,0,2.26.66,2.26,2.02,0,.74-.19,1.1-.86,1.58.59.38.71.66.72,1.79.02.93.08,1.12.37,1.33v.4h-1.26c-.14-.34-.24-.78-.24-1.23l.02-.64c0-.77-.3-1.09-1.02-1.09h-2.15v2.96ZM121.83,9.91c.83,0,1.2-.32,1.2-1.07s-.35-1.07-1.2-1.07h-2.07v2.14h2.07Z"/>
    </g>
  </g>
</svg>